<svg xmlns="http://www.w3.org/2000/svg" width="250" height="250" viewBox="0 0 250 250">
    <g fill="none" fill-rule="evenodd">
        <path fill="#FFA76D" d="M119 107.164L132.561 152 210 127.988 196.733 83z"/>
        <path fill="#FF6853" d="M126 110.209L195.265 89 206 126.246 136.45 148 126 110.209zm1.515.829l9.79 35.4 67.17-21.01-10.052-34.877-66.908 20.487z"/>
        <path fill="#FF6853" d="M192.536 88.447a1.41 1.41 0 0 1 2.028-.032c.569.566.583 1.497.031 2.08l-26.55 28.058a1.413 1.413 0 0 1-1.247.43l-40.58-6.374c-.784-.124-1.321-.874-1.201-1.677.12-.803.852-1.355 1.635-1.232l39.85 6.26 26.034-27.513z"/>
        <path fill="#FFD17B" d="M165.327 134.985c-1.599 2.179 3.093 7.474 4.794 6.983 1.67-.61 3.038-6.285.395-8.097-2.717-1.856-3.99-.394-5.189 1.114"/>
        <path fill="#FFD17B" d="M169.327 133.018c-1.599 2.169 3.094 7.438 4.794 6.95 1.67-.607 3.038-6.255.395-8.058-2.672-1.921-4.064-.437-5.189 1.108"/>
        <path fill="#FFD17B" d="M174.327 130.993c-1.597 2.176 3.09 7.465 4.787 6.975 1.699-.49 3.035-6.278.395-8.087-2.713-1.855-4.058-.439-5.182 1.112M163.192 136.402c-.934 1.462 1.792 4.97 2.725 4.566.933-.403 1.776-4.154.22-5.355-1.518-1.279-2.278-.33-2.945.79M87.672 55c25.315 4.026 43.407 21.747 47.064 38.31 1.9 8.6-6.924 10.083-11.373 10.721 0 0 5.56 31.147-20.11 34.631-25.724 3.902-38.955-26.945-40.043-42.564C62.123 80.48 64.542 58.66 87.672 55"/>
        <path fill="#FFD17B" d="M90.843 134.328c.123 4.933-.485 9.06-2.843 12.43 1.961 4.391 5.98 6.59 10.227.487 1.624-8.972 1.624-8.972 1.567-12.536 1.249-5.465-3.511-7.273-5.28-6.561-2.176.877-3.735 3.644-3.671 6.18"/>
        <path fill="#FFF" d="M109.5 78a4.5 4.5 0 1 0 0 9 4.5 4.5 0 0 0 0-9"/>
        <path fill="#141426" d="M111 81a3 3 0 1 0 0 6 3 3 0 0 0 0-6"/>
        <path fill="#001039" d="M130.763 38.636c-5.678-5.794-13.657-3.824-19.761.084-3.452 2.21-6.63 5.153-10.574 6.443-4.205 1.375-6.633-.858-9.94-3.119-4.443-3.035-15.047-.763-15.143-.797-1.034-.369-7.383-2.836-10.526-.306-3.76 3.028-4.63 6.566-4.86 9.903-.181 2.609.986 9.169.433 9.948a.337.337 0 0 1-.094.092c-6.837 4.313-8.79 30.406-2.425 37.65.1.114-3.084 9.257-2.404 13.797.802 5.356 4.748 9.288 10.116 9.641 5.21.343 12.217-2.425 16.067-10.792 1.113-2.42 2.817-8.103.245-10.824-.943-.997-3.418-2.428-3.69-3.317-.78-2.54-1.54-5.379 0-7.518 1.443-2.005 2.858-3.347 4.558-1.327 1.303 1.548 2.715 4.038 3.474 5.528 1.844 3.624 3.826 4.509 5.358 1.824 1.347-2.36 1.441-11.889 1.8-13.922.631-3.58 1.631-6.084 5.53-6.063 3.565.02 6.983-.041 9.62-2.855 2.25-2.403 3.522-6.207 7.548-5.168 1.711.442 3.088 1.545 4.922 1.626 1.837.08 3.577-.646 5.033-1.732 2.972-2.22 5.417-5.761 6.966-9.13 2.95-6.42 2.93-14.377-2.253-19.666"/>
        <path fill="#FF6853" d="M110.18 119.388c.56 1.292 2.081 1.94 3.399 1.447 1.317-.493 4.296-3.128 3.173-4.05-.957-.788-2.437 1.484-5.202-.63-1.096-.839-1.93 1.94-1.37 3.233"/>
        <path fill="#9570C4" d="M175.76 150.903c-1.553-.434-4.505-1.876-7.692-1.903-5.04-.042-6.568 6.887-10.05 12.582-4.65 7.605-8.667 13.775-15.31 21.453a279.35 279.35 0 0 0-10.205-13.455c-4.301-5.324-8.907-12.236-15.04-15.657-5.558-3.1-11.258-.906-15.433 3.909-9.882 11.397 6.945 22.682 14.263 32.674 5.163 7.05 9.064 10.703 17.993 17.321 2.692 1.995 7.286 1.06 10.214.021 4.29-1.52 8.933-3.766 11.503-7.574 3.01-4.461 6.034-7.23 8.15-12.169 5.04-11.76 8.623-18.34 11.442-28.695 1.106-4.06 2.432-7.872.165-8.507"/>
        <path fill="#FFD17B" d="M81.867 87.876c-.963-.867-2.364-1.16-3.513-.563-3.032 1.554-4.577 6.722-2.18 9.059 3.018 2.909 8.956 3.892 10.61.401 1.21-2.642-2.96-7.017-4.917-8.897"/>
        <path fill="#000" d="M82.189 95.511a2.36 2.36 0 0 0-.045.904l-.004.26-.017.061-.034.122-.017.061c-.017.061-.017.061-.082.045-.017.061-.145.03-.21.013.018-.061-.047-.077-.047-.077l-.064-.016-.047-.078a1.272 1.272 0 0 0-.155-.431c-.185-.57-.354-1.2-.539-1.769l-.374-.879c-.125-.292-.25-.585-.554-.727.193.048.369.158.416.235.094.155.206.248.3.403.206.248.331.54.456.833.25.586.499 1.171.603 1.786.03.138.06.276.155.43l.064.017-.064-.016-.129-.033c-.064-.016-.017.061-.081.045s-.081.045-.081.045l-.017.061c-.017.061 0 0 0 0l.017-.06.004-.261c.004-.26.024-.582.126-.949.17-.61.598-1.156 1.231-1.454-.295.317-.577.835-.811 1.43"/>
        <path fill="#FFD17B" d="M164.03 143.405c1.298 2.572 2.662 5.915 5.19 6.546 2.81.702 7.133 4.91 11.457-10.52 3.134-11.188-17.583 2.116-16.646 3.974"/>
        <path fill="#593098" d="M75.724 147.015c-.686.06-1.379.33-2.023.866-6.887 5.726-13.42 11.89-19.518 18.51a198.581 198.581 0 0 0-8.809 10.24C42.686 179.975 39.976 183.411 40 188c.024 4.47 2.007 8.862 3.376 13.019l3.695 11.216h.105c.437 1.13 11.137.904 11.137 0h7.446a177.134 177.134 0 0 1-.142-14.61c.164-1.625.251-3.266.265-4.923a70.244 70.244 0 0 0 2.974-11.32c.275-1.575-.511-3.05-1.649-3.94.022-.222.041-.445.063-.667 1.721-3.687 3.07-7.571 4.16-11.376.348-1.216.009-2.353-.67-3.208.08-.21.166-.418.245-.628.24-.64.275-1.246.161-1.793a206.998 206.998 0 0 1 7.606-6.642c2.948-2.45.052-6.4-3.048-6.113"/>
        <path fill="#9570C4" d="M119.742 198.399c-.544-4.195-2.4-8.07-2.838-12.276-.414-3.98-.041-8.024.216-12.003.526-8.16.59-17.7-5.881-23.617-3.492-3.194-24.268-5.745-24.264-5.754-5.186-2.077-12.66.438-16.686 4.197-.05.045-.1.091-.147.138-4.634 4.456-6.218 11.17-7.111 17.39a154.15 154.15 0 0 0-1.636 4.922c-.099.222-.181.465-.244.733a32.92 32.92 0 0 0-.032.14c-2.795 9.067-4.78 18.364-6.123 27.776-.012.074-.03.147-.043.22-.658 3.634-1.744 8.368-1.953 12.951h.082c-.687 2.912 66.499 4.435 66.686 0a.645.645 0 0 0-.103-.366c.005-4.814.698-9.663.077-14.451"/>
        <path fill="#FFF" d="M102.174 156.078c-2.057 2.26-3.372 5.037-3.15 8.139.224 3.117 1.747 6.004 3.468 8.55 4.311 6.374 10.217 11.473 14.97 17.495 1.293 1.638 2.268 3.455 3.484 5.13 1.264 1.744 3.59 2.56 4.597 4.485.147.28.574.032.427-.249-.8-1.526-2.437-2.343-3.667-3.474-1.312-1.207-2.064-2.945-3.094-4.387-2.104-2.943-4.56-5.623-7.005-8.283-2.533-2.755-5.11-5.483-7.424-8.427-2.06-2.622-4.059-5.527-4.913-8.79-.958-3.663.138-7.075 2.656-9.841.213-.234-.135-.583-.35-.348"/>
    </g>
</svg>
