<svg xmlns="http://www.w3.org/2000/svg" width="250" height="250" viewBox="0 0 250 250">
    <g fill="none" fill-rule="evenodd">
        <path fill="#CCBFC1" d="M80 240c0-5.523 14.327-10 32-10 17.673 0 32 4.477 32 10s-14.327 10-32 10c-17.673 0-32-4.477-32-10" style="mix-blend-mode:multiply"/>
        <path fill="#CCBFC1" d="M100 241.5c0-1.933 4.477-3.5 10-3.5s10 1.567 10 3.5-4.477 3.5-10 3.5-10-1.567-10-3.5" style="mix-blend-mode:multiply"/>
        <path fill="#B0A06C" d="M105 241h12V85h-12z"/>
        <path fill="#7D6E4A" d="M113 241h7V85h-7z"/>
        <path fill="#FF4234" d="M91 48h7V18h-7z"/>
        <path fill="#FF4234" d="M97.362 20.812l11.732-3.67A4.154 4.154 0 0 0 112 13.08l-.155-7.015c-.059-2.679-2.587-4.603-5.168-3.931L95.1 5.145A4.153 4.153 0 0 0 92 9.169v7.674C92 19.14 93.85 21 96.134 21c.416 0 .83-.063 1.228-.188"/>
        <path fill="#FFCF00" d="M81 39.429S130.39 20 143.333 20c17.372 0 21.8 25.673 20.437 43.02L110.634 88 81 39.429z"/>
        <path fill="#003067" d="M64.141 88h47.718s3.458-49-23.86-49c-27.316 0-23.858 49-23.858 49"/>
        <path fill="#FFCF00" d="M62.492 88H111s-39.374 9-67.144 9c-27.769 0 18.636-9 18.636-9"/>
        <path fill="#FD6F25" d="M111 87v2.155c-6.325 1.578-36.963 6.747-50.15 8.302-8.124.958-22.067.422-24.96.1-.473-.055-.83-.413-.84-.847L35 94.686l.004.003c.07.712 2.564 1.172 8.893 1.172 26.347 0 63.09-7.973 67.103-8.861"/>
        <path fill="#88A600" d="M105 97.148V97h.5s-.171.053-.5.148"/>
        <path fill="#000" d="M145.452 112.738a.701.701 0 0 0-.202.167l-.056.05-.018.009-.036.02-.018.009c-.018.01-.018.01-.034-.001-.018.01-.05-.012-.067-.022.018-.01.002-.02.002-.02l-.017-.011.002-.02a.21.21 0 0 0 .043-.101c.062-.131.142-.271.205-.402l.069-.212c.022-.07.046-.141-.018-.204.049.032.08.074.078.094-.003.04.011.072.008.112a.462.462 0 0 1-.035.213 1.357 1.357 0 0 1-.188.412c-.02.03-.04.06-.043.1l.016.012-.016-.011-.033-.021c-.016-.011-.017.01-.034-.001-.016-.011-.034-.001-.034-.001l-.018.01c-.018.009 0 0 0 0l.018-.01.056-.05c.055-.05.129-.108.237-.166.18-.097.425-.15.681-.133a2.446 2.446 0 0 0-.548.178"/>
        <path fill="#FF98CA" d="M25 21.602c1.157-2.162 5.15-6.852 8.736-7.832 3.587-.98 11.978-.21 13.264-.77 0 0-3.587 2.73-4.872 5.53-1.286 2.8-7.488 8.593-17.076 3.352l-.052-.28z"/>
        <path fill="#FF64A9" d="M17.046 23.625c.754-1.026 1.856-1.519 2.89-2.077a32.441 32.441 0 0 1 3.222-1.448 30.24 30.24 0 0 1 3.35-1.077c1.131-.31 2.282-.534 3.434-.725a25.37 25.37 0 0 0 3.347-.772 34.791 34.791 0 0 0 3.247-1.193c2.123-.907 4.22-1.946 6.112-3.289l.006-.004a.217.217 0 0 1 .307.057.229.229 0 0 1-.076.327c-2.052 1.14-4.08 2.28-6.202 3.26-2.121.965-4.327 1.789-6.633 2.253a35.846 35.846 0 0 0-6.57 2.01 31.618 31.618 0 0 0-3.108 1.467c-1.02.529-1.933 1.218-3.062 1.57l-.015.006a.228.228 0 0 1-.285-.156.241.241 0 0 1 .036-.21"/>
        <path fill="#FF98CA" d="M192 113.602c1.157-2.162 5.15-6.852 8.736-7.832 3.587-.98 11.978-.21 13.264-.77 0 0-3.587 2.73-4.872 5.53-1.286 2.8-7.488 8.593-17.076 3.352l-.052-.28z"/>
        <path fill="#FF64A9" d="M208.046 116.625c.754-1.026 1.856-1.519 2.89-2.077a32.595 32.595 0 0 1 3.222-1.448 30.309 30.309 0 0 1 3.35-1.077c1.131-.31 2.281-.534 3.434-.725 1.13-.19 2.246-.43 3.347-.772a34.92 34.92 0 0 0 3.247-1.193c2.123-.907 4.22-1.946 6.112-3.29l.006-.003a.217.217 0 0 1 .307.057.23.23 0 0 1-.077.327c-2.051 1.14-4.078 2.28-6.2 3.26-2.122.965-4.328 1.789-6.633 2.254a35.845 35.845 0 0 0-6.57 2.01 31.506 31.506 0 0 0-3.109 1.466c-1.02.53-1.933 1.218-3.061 1.57l-.016.006a.227.227 0 0 1-.285-.156.24.24 0 0 1 .036-.21"/>
        <path fill="#FF98CA" d="M61 135.602c-1.157-2.162-5.15-6.852-8.736-7.832-3.587-.98-11.978-.21-13.264-.77 0 0 3.586 2.73 4.872 5.53 1.286 2.8 7.488 8.593 17.076 3.352l.052-.28z"/>
        <path fill="#FF64A9" d="M68.689 139.985c-1.128-.353-2.041-1.042-3.061-1.57a31.552 31.552 0 0 0-3.109-1.467 35.834 35.834 0 0 0-6.57-2.01c-2.305-.465-4.511-1.289-6.632-2.254-2.123-.98-4.15-2.12-6.201-3.26a.229.229 0 0 1-.09-.306.218.218 0 0 1 .3-.09c.007.003.013.008.02.012l.006.004c1.891 1.343 3.99 2.382 6.112 3.288a34.79 34.79 0 0 0 3.247 1.194c1.1.342 2.217.582 3.347.772 1.152.191 2.302.416 3.433.726 1.134.294 2.255.651 3.35 1.077 1.1.417 2.17.91 3.222 1.447 1.034.558 2.136 1.05 2.89 2.077a.238.238 0 0 1-.044.328.224.224 0 0 1-.203.037l-.017-.005z"/>
        <path fill="#FF98CA" d="M176 53.602c-1.157-2.162-5.15-6.852-8.736-7.832-3.587-.98-11.978-.21-13.264-.77 0 0 3.586 2.73 4.872 5.53 1.286 2.8 7.488 8.593 17.076 3.352l.052-.28z"/>
        <path fill="#FF64A9" d="M183.69 55.985c-1.13-.353-2.042-1.042-3.062-1.571a31.692 31.692 0 0 0-3.109-1.466 35.853 35.853 0 0 0-6.57-2.01c-2.305-.465-4.511-1.289-6.632-2.254-2.123-.98-4.15-2.12-6.202-3.26a.23.23 0 0 1-.088-.306.218.218 0 0 1 .298-.09c.008.003.014.008.02.012l.007.004c1.891 1.343 3.989 2.382 6.112 3.289 1.064.452 2.149.85 3.247 1.193 1.1.343 2.217.582 3.347.772 1.152.191 2.302.416 3.433.725 1.134.295 2.254.652 3.35 1.078 1.1.417 2.171.91 3.222 1.447 1.035.558 2.136 1.05 2.891 2.077a.238.238 0 0 1-.045.328.225.225 0 0 1-.203.037l-.017-.005z"/>
    </g>
</svg>
